<svg xmlns="http://www.w3.org/2000/svg" xmlns:xlink="http://www.w3.org/1999/xlink" width="500" zoomAndPan="magnify" viewBox="0 0 375 225" height="300" preserveAspectRatio="xMidYMid meet" version="1.0"><defs><g/><clipPath id="bbd5f67880"><path d="M 40.179688 96.390625 L 111.429688 96.390625 L 111.429688 128.640625 L 40.179688 128.640625 Z M 40.179688 96.390625 " clip-rule="nonzero"/></clipPath><clipPath id="02df62dd08"><path d="M 0.179688 0.703125 L 71.429688 0.703125 L 71.429688 32.640625 L 0.179688 32.640625 Z M 0.179688 0.703125 " clip-rule="nonzero"/></clipPath><clipPath id="fb8983e1d7"><rect x="0" width="72" y="0" height="33"/></clipPath><clipPath id="2f860128b4"><path d="M 96 103 L 120 103 L 120 132 L 96 132 Z M 96 103 " clip-rule="nonzero"/></clipPath><clipPath id="18a8095189"><path d="M 94.148438 105.046875 L 118.777344 102.605469 L 121.515625 130.21875 L 96.886719 132.664062 Z M 94.148438 105.046875 " clip-rule="nonzero"/></clipPath><clipPath id="b557d4d4c0"><path d="M 94.148438 105.046875 L 118.777344 102.605469 L 121.515625 130.21875 L 96.886719 132.664062 Z M 94.148438 105.046875 " clip-rule="nonzero"/></clipPath><clipPath id="9291b91aa5"><path d="M 112 94 L 141 94 L 141 129 L 112 129 Z M 112 94 " clip-rule="nonzero"/></clipPath><clipPath id="78afe40573"><path d="M 115.101562 94.109375 L 140.519531 96.160156 L 137.925781 128.308594 L 112.507812 126.253906 Z M 115.101562 94.109375 " clip-rule="nonzero"/></clipPath><clipPath id="fff0911c77"><path d="M 0.320312 0.078125 L 28.640625 0.078125 L 28.640625 34.398438 L 0.320312 34.398438 Z M 0.320312 0.078125 " clip-rule="nonzero"/></clipPath><clipPath id="8cfea8e7e8"><path d="M 3.101562 0.109375 L 28.519531 2.160156 L 25.925781 34.308594 L 0.507812 32.253906 Z M 3.101562 0.109375 " clip-rule="nonzero"/></clipPath><clipPath id="d588d8bd8e"><path d="M -118.414062 22.957031 L 90.90625 39.859375 L 93.5 7.714844 L -115.816406 -9.1875 Z M -118.414062 22.957031 " clip-rule="nonzero"/></clipPath><clipPath id="07f7f8e2d9"><rect x="0" width="29" y="0" height="35"/></clipPath><clipPath id="3e66096ced"><path d="M 38 122 L 46 122 L 46 130 L 38 130 Z M 38 122 " clip-rule="nonzero"/></clipPath><clipPath id="3be11b4085"><path d="M 35.3125 125.246094 L 41.585938 119.449219 L 45.070312 123.222656 L 38.796875 129.015625 Z M 35.3125 125.246094 " clip-rule="nonzero"/></clipPath><clipPath id="01e8aa0957"><path d="M 38.441406 122.355469 L 45.054688 123.234375 L 38.796875 129.015625 Z M 38.441406 122.355469 " clip-rule="nonzero"/></clipPath><clipPath id="d9e7ef3a6a"><path d="M 0.398438 0.160156 L 7.121094 0.160156 L 7.121094 7.121094 L 0.398438 7.121094 Z M 0.398438 0.160156 " clip-rule="nonzero"/></clipPath><clipPath id="a75642770d"><path d="M -2.6875 3.246094 L 3.585938 -2.550781 L 7.070312 1.222656 L 0.796875 7.015625 Z M -2.6875 3.246094 " clip-rule="nonzero"/></clipPath><clipPath id="fa6131e68b"><path d="M 0.441406 0.355469 L 7.054688 1.234375 L 0.796875 7.015625 Z M 0.441406 0.355469 " clip-rule="nonzero"/></clipPath><clipPath id="037f31ef39"><rect x="0" width="8" y="0" height="8"/></clipPath><clipPath id="eaac2a4c94"><path d="M 135 99 L 147 99 L 147 110 L 135 110 Z M 135 99 " clip-rule="nonzero"/></clipPath><clipPath id="5c8751a7e7"><path d="M 131.535156 102.886719 L 142.648438 96.101562 L 146.726562 102.777344 L 135.613281 109.566406 Z M 131.535156 102.886719 " clip-rule="nonzero"/></clipPath><clipPath id="3e6155d481"><path d="M 137.078125 99.5 L 146.699219 102.792969 L 135.613281 109.566406 Z M 137.078125 99.5 " clip-rule="nonzero"/></clipPath><clipPath id="05a9c5214e"><path d="M 0.601562 0.359375 L 11.878906 0.359375 L 11.878906 10.679688 L 0.601562 10.679688 Z M 0.601562 0.359375 " clip-rule="nonzero"/></clipPath><clipPath id="f7c02e83d4"><path d="M -3.464844 3.886719 L 7.648438 -2.898438 L 11.726562 3.777344 L 0.613281 10.566406 Z M -3.464844 3.886719 " clip-rule="nonzero"/></clipPath><clipPath id="bab0fb2bcc"><path d="M 2.078125 0.5 L 11.699219 3.792969 L 0.613281 10.566406 Z M 2.078125 0.5 " clip-rule="nonzero"/></clipPath><clipPath id="b111853edf"><rect x="0" width="12" y="0" height="11"/></clipPath></defs><rect x="-37.5" width="450" fill="#ffffff" y="-22.5" height="270" fill-opacity="1"/><rect x="-37.5" width="450" fill="#f3f5fc" y="-22.5" height="270" fill-opacity="1"/><g clip-path="url(#bbd5f67880)"><g transform="matrix(1, 0, 0, 1, 40, 96)"><g clip-path="url(#fb8983e1d7)"><g clip-path="url(#02df62dd08)"><path fill="#4f8ef7" d="M 167.234375 22.109375 L 167.113281 22.089844 C 161.527344 12.085938 158.507812 7.078125 158.0625 7.070312 C 157.203125 5.886719 156.070312 4.832031 154.664062 3.898438 C 153.78125 3.417969 152.96875 3.246094 152.21875 3.390625 C 151.265625 3.292969 149.78125 4.726562 147.757812 7.695312 C 141.242188 20.074219 137.625 26.449219 136.90625 26.816406 C 134.523438 29.894531 132.210938 31.242188 129.96875 30.859375 C 128.410156 30.488281 126.835938 29.425781 125.246094 27.679688 L 121.765625 23.152344 C 116.375 14.441406 113.140625 9.507812 112.070312 8.347656 C 110.695312 6.410156 109.082031 5.230469 107.226562 4.8125 C 105.570312 5.523438 104.210938 6.839844 103.144531 8.765625 C 96.65625 21.941406 93.179688 28.363281 92.71875 28.027344 C 91.171875 30.050781 89.394531 31.101562 87.382812 31.1875 C 85.734375 31.085938 83.839844 29.902344 81.707031 27.636719 C 81.132812 27.128906 79.964844 25.6875 78.214844 23.308594 L 67.5625 7.851562 C 66.105469 5.878906 64.402344 4.640625 62.445312 4.132812 C 60.648438 4.945312 59.238281 6.449219 58.21875 8.644531 L 49.097656 29.730469 C 47.964844 31.625 46.632812 32.679688 45.105469 32.894531 C 43.703125 32.828125 42.300781 31.855469 40.902344 29.980469 L 29.398438 8.566406 C 28.210938 6.757812 27.210938 5.570312 26.398438 5.003906 C 26.3125 4.789062 25.691406 4.511719 24.535156 4.171875 C 23.566406 4.101562 22.011719 5.457031 19.867188 8.226562 C 18.734375 9.703125 15.875 14.65625 11.285156 23.09375 L 8.128906 27.714844 C 7.609375 28.375 6.816406 29.128906 5.746094 29.972656 C 5.0625 30.347656 4.394531 30.660156 3.746094 30.90625 C 3.6875 30.953125 3.457031 30.953125 3.050781 30.90625 C 1.847656 30.820312 0.976562 30.5625 0.4375 30.128906 C -0.410156 29.710938 -1.410156 28.789062 -2.5625 27.375 C -3.769531 25.820312 -4.832031 24.21875 -5.75 22.574219 C -10.371094 13.886719 -13.300781 8.777344 -14.546875 7.253906 C -15.683594 5.699219 -16.785156 4.558594 -17.859375 3.828125 C -18.667969 3.324219 -19.460938 3.085938 -20.242188 3.117188 C -21.445312 3.21875 -22.589844 3.65625 -23.683594 4.4375 C -25.609375 5.945312 -27.121094 7.433594 -28.21875 8.894531 L -32.828125 15.410156 C -34.734375 18.398438 -37.105469 22.394531 -39.945312 27.398438 C -39.980469 27.453125 -40.078125 27.457031 -40.238281 27.414062 C -41.554688 26.878906 -42.429688 26.351562 -42.863281 25.828125 C -38.144531 17.980469 -34.660156 12.617188 -32.410156 9.734375 C -28.277344 4.023438 -24.25 0.972656 -20.332031 0.589844 C -17.96875 0.585938 -15.890625 1.664062 -14.101562 3.824219 L -10.613281 8.664062 C -4.855469 19.339844 -1.695312 24.859375 -1.132812 25.226562 L 0.898438 27.515625 L 2.085938 28.3125 C 3.363281 28.488281 3.707031 28.574219 3.117188 28.570312 C 4.234375 28.074219 4.78125 27.777344 4.769531 27.679688 L 7.636719 24.347656 L 18.652344 5.929688 C 20.710938 3.3125 22.644531 1.945312 24.457031 1.828125 C 26.609375 1.824219 28.785156 3.472656 30.984375 6.777344 L 41.289062 26.46875 L 43.074219 29.113281 C 43.847656 30.109375 44.566406 30.625 45.234375 30.65625 C 45.113281 30.636719 45 30.65625 44.898438 30.722656 C 45.769531 30.296875 46.179688 30.039062 46.132812 29.949219 L 48.265625 26.628906 C 53.335938 13.863281 56.144531 7.304688 56.691406 6.953125 C 58.683594 3.722656 60.550781 2.070312 62.296875 1.988281 C 63.859375 2.230469 64.816406 2.503906 65.160156 2.808594 C 66.355469 3.515625 67.535156 4.546875 68.699219 5.90625 L 81.921875 24.777344 C 83.449219 26.929688 85.3125 28.386719 87.507812 29.144531 C 88.515625 29.484375 90.128906 28.132812 92.351562 25.089844 C 93.03125 24.34375 95.554688 19.445312 99.921875 10.398438 C 100.894531 8.542969 101.835938 7.042969 102.746094 5.894531 C 104.164062 4.097656 105.621094 3.085938 107.113281 2.863281 C 108.5625 3.078125 109.453125 3.324219 109.773438 3.601562 C 110.890625 4.253906 111.976562 5.214844 113.035156 6.480469 L 125.058594 24.515625 C 126.78125 26.863281 128.527344 28.367188 130.300781 29.03125 C 131.667969 29.363281 133.398438 28.234375 135.484375 25.648438 C 135.972656 25.632812 139.589844 19.289062 146.332031 6.613281 C 148.339844 3.53125 150.164062 1.910156 151.8125 1.75 C 156.578125 0.914062 161.71875 7.699219 167.234375 22.109375 " fill-opacity="1" fill-rule="nonzero"/></g></g></g></g><g clip-path="url(#2f860128b4)"><g clip-path="url(#18a8095189)"><g clip-path="url(#b557d4d4c0)"><path fill="#090b18" d="M 113.277344 103.203125 C 113.957031 103.039062 114.015625 103.097656 114.179688 103.105469 C 114.152344 103.222656 109.589844 119.121094 109.441406 119.863281 C 109.550781 119.910156 109.714844 119.996094 109.65625 120.144531 C 109.132812 121.398438 108.371094 123.050781 109.652344 124.386719 C 112.058594 126.90625 110.382812 130.617188 107.847656 131.707031 C 105.25 132.820312 102.042969 130.515625 103.378906 126.695312 C 103.257812 126.394531 103.246094 126.046875 103.433594 125.769531 C 103.273438 126.0625 102.960938 126.191406 102.636719 126.179688 C 100.597656 128.46875 97.203125 127.917969 96.308594 125.484375 C 95.167969 122.390625 98.378906 118.734375 101.527344 119.503906 C 102.070312 119.636719 103.007812 120.15625 104.316406 119.320312 C 104.953125 118.910156 105.40625 118.363281 105.929688 117.804688 C 106.039062 117.6875 106.21875 117.742188 106.300781 117.859375 C 106.347656 117.820312 106.390625 117.78125 106.4375 117.742188 C 106.480469 117.996094 106.988281 119.507812 107.027344 119.570312 C 106.820312 119.640625 106.765625 119.871094 106.648438 120.03125 C 105.679688 121.570312 104.707031 123.105469 103.730469 124.636719 C 103.855469 124.917969 103.78125 125.234375 103.613281 125.484375 C 103.753906 125.214844 104.011719 125.027344 104.320312 125.050781 C 105.328125 123.507812 106.277344 121.929688 107.265625 120.371094 C 107.347656 120.199219 107.550781 120.035156 107.464844 119.828125 C 106.703125 116.882812 106.554688 118.632812 107.296875 115.597656 C 108.042969 112.542969 109.15625 108.871094 110.429688 105.996094 C 111.136719 104.402344 112.105469 103.628906 113.277344 103.203125 Z M 108.253906 116.621094 C 107.894531 116.792969 107.777344 117.3125 108.035156 117.617188 C 108.359375 118.0625 109.171875 117.929688 109.265625 117.367188 C 109.410156 116.8125 108.742188 116.328125 108.253906 116.621094 Z M 97.703125 123.03125 C 96.847656 125.058594 98.441406 126.960938 100.597656 126.003906 C 102.027344 125.375 102.972656 123.75 102.625 122.234375 C 102.417969 121.335938 101.523438 120.695312 100.613281 120.757812 C 99.296875 120.84375 98.199219 121.847656 97.703125 123.03125 Z M 106.417969 125.132812 C 104.8125 125.914062 104.019531 128.023438 104.664062 129.445312 C 105.621094 131.550781 108.632812 130.640625 109.316406 127.976562 C 109.875 125.789062 108.152344 124.292969 106.417969 125.132812 Z M 111.773438 112.976562 C 111.722656 113.179688 110.433594 117.59375 110.203125 118.59375 C 113.007812 116.078125 118.820312 111.871094 119.449219 109.058594 C 119.597656 108.394531 119.589844 107.449219 119.296875 106.84375 C 119.246094 106.75 119.1875 106.664062 119.132812 106.570312 C 118.964844 106.675781 111.816406 112.804688 111.773438 112.976562 Z M 111.773438 112.976562 " fill-opacity="1" fill-rule="nonzero"/></g></g></g><g clip-path="url(#9291b91aa5)"><g clip-path="url(#78afe40573)"><g transform="matrix(1, 0, 0, 1, 112, 94)"><g clip-path="url(#07f7f8e2d9)"><g clip-path="url(#fff0911c77)"><g clip-path="url(#8cfea8e7e8)"><g clip-path="url(#d588d8bd8e)"><path fill="#a87fff" d="M 91.90625 29.0625 L 91.789062 29.03125 C 87.023438 18.613281 84.417969 13.378906 83.976562 13.332031 C 83.210938 12.085938 82.167969 10.941406 80.84375 9.898438 C 80.003906 9.347656 79.203125 9.113281 78.445312 9.195312 C 77.507812 9.019531 75.910156 10.328125 73.652344 13.125 C 66.160156 24.941406 62.042969 31.003906 61.296875 31.3125 C 58.675781 34.1875 56.261719 35.347656 54.054688 34.785156 C 52.535156 34.285156 51.050781 33.101562 49.605469 31.234375 L 46.5 26.441406 C 41.828125 17.324219 39.003906 12.148438 38.03125 10.90625 C 36.816406 8.859375 35.300781 7.554688 33.484375 6.992188 C 31.777344 7.566406 30.316406 8.769531 29.097656 10.601562 C 21.570312 23.214844 17.589844 29.332031 17.15625 28.960938 C 15.453125 30.855469 13.59375 31.761719 11.585938 31.679688 C 9.949219 31.449219 8.15625 30.117188 6.210938 27.6875 C 5.679688 27.136719 4.632812 25.605469 3.078125 23.09375 L -6.296875 6.828125 C -7.585938 4.746094 -9.1875 3.371094 -11.097656 2.710938 C -12.953125 3.371094 -14.476562 4.757812 -15.671875 6.867188 L -26.460938 27.148438 C -27.742188 28.949219 -29.152344 29.890625 -30.695312 29.980469 C -32.085938 29.800781 -33.40625 28.71875 -34.648438 26.738281 L -44.394531 4.46875 C -45.429688 2.570312 -46.332031 1.304688 -47.09375 0.675781 C -47.164062 0.457031 -47.761719 0.128906 -48.882812 -0.304688 C -49.84375 -0.449219 -51.503906 0.773438 -53.867188 3.363281 C -55.113281 4.742188 -58.363281 9.449219 -63.617188 17.492188 L -67.136719 21.84375 C -67.707031 22.457031 -68.558594 23.144531 -69.691406 23.902344 C -70.402344 24.21875 -71.089844 24.476562 -71.757812 24.671875 C -71.820312 24.710938 -72.054688 24.695312 -72.453125 24.617188 C -73.644531 24.433594 -74.492188 24.105469 -74.996094 23.628906 C -75.804688 23.144531 -76.726562 22.148438 -77.761719 20.640625 C -78.839844 18.996094 -79.769531 17.316406 -80.554688 15.601562 C -84.460938 6.570312 -86.972656 1.242188 -88.089844 -0.378906 C -89.09375 -2.019531 -90.105469 -3.246094 -91.117188 -4.058594 C -91.878906 -4.625 -92.652344 -4.925781 -93.429688 -4.957031 C -94.636719 -4.957031 -95.816406 -4.609375 -96.96875 -3.917969 C -99.011719 -2.570312 -100.636719 -1.210938 -101.847656 0.160156 L -106.964844 6.28125 C -109.109375 9.105469 -111.796875 12.898438 -115.023438 17.660156 C -115.066406 17.710938 -115.164062 17.707031 -115.320312 17.652344 C -116.585938 17.011719 -117.417969 16.414062 -117.808594 15.855469 C -112.472656 8.414062 -108.566406 3.347656 -106.09375 0.660156 C -101.515625 -4.703125 -97.257812 -7.417969 -93.320312 -7.488281 C -90.960938 -7.300781 -88.980469 -6.058594 -87.371094 -3.761719 L -84.28125 1.347656 C -79.402344 12.449219 -76.695312 18.207031 -76.164062 18.613281 L -74.324219 21.0625 L -73.203125 21.949219 C -71.945312 22.226562 -71.609375 22.34375 -72.199219 22.292969 C -71.046875 21.886719 -70.472656 21.636719 -70.480469 21.535156 L -67.355469 18.445312 L -54.890625 0.976562 C -52.628906 -1.464844 -50.589844 -2.671875 -48.773438 -2.644531 C -46.628906 -2.476562 -44.59375 -0.660156 -42.667969 2.8125 L -33.980469 23.269531 L -32.414062 26.046875 C -31.726562 27.105469 -31.046875 27.675781 -30.382812 27.761719 C -30.503906 27.730469 -30.617188 27.742188 -30.726562 27.800781 C -29.824219 27.445312 -29.390625 27.21875 -29.433594 27.128906 L -27.039062 23.988281 C -20.957031 11.675781 -17.628906 5.363281 -17.058594 5.054688 C -14.8125 1.996094 -12.816406 0.5 -11.074219 0.558594 C -9.53125 0.925781 -8.601562 1.277344 -8.285156 1.605469 C -7.148438 2.40625 -6.054688 3.53125 -5.003906 4.980469 L 6.65625 24.851562 C 8.007812 27.121094 9.742188 28.722656 11.871094 29.65625 C 12.847656 30.078125 14.566406 28.859375 17.027344 26.003906 C 17.765625 25.316406 20.671875 20.636719 25.753906 11.96875 C 26.875 10.199219 27.933594 8.78125 28.933594 7.710938 C 30.492188 6.03125 32.023438 5.140625 33.527344 5.039062 C 34.957031 5.367188 35.824219 5.683594 36.125 5.992188 C 37.183594 6.730469 38.1875 7.773438 39.140625 9.121094 L 49.675781 28.066406 C 51.203125 30.542969 52.824219 32.183594 54.535156 32.988281 C 55.871094 33.429688 57.6875 32.445312 59.976562 30.03125 C 60.460938 30.058594 64.578125 24.023438 72.320312 11.933594 C 74.566406 9.023438 76.519531 7.554688 78.171875 7.527344 C 82.988281 7.078125 87.566406 14.253906 91.90625 29.0625 " fill-opacity="1" fill-rule="nonzero"/></g></g></g></g></g></g></g><g clip-path="url(#3e66096ced)"><g clip-path="url(#3be11b4085)"><g clip-path="url(#01e8aa0957)"><g transform="matrix(1, 0, 0, 1, 38, 122)"><g clip-path="url(#037f31ef39)"><g clip-path="url(#d9e7ef3a6a)"><g clip-path="url(#a75642770d)"><g clip-path="url(#fa6131e68b)"><path fill="#f3f5fc" d="M -2.6875 3.246094 L 3.574219 -2.535156 L 7.054688 1.234375 L 0.796875 7.015625 Z M -2.6875 3.246094 " fill-opacity="1" fill-rule="nonzero"/></g></g></g></g></g></g></g></g><g clip-path="url(#eaac2a4c94)"><g clip-path="url(#5c8751a7e7)"><g clip-path="url(#3e6155d481)"><g transform="matrix(1, 0, 0, 1, 135, 99)"><g clip-path="url(#b111853edf)"><g clip-path="url(#05a9c5214e)"><g clip-path="url(#f7c02e83d4)"><g clip-path="url(#bab0fb2bcc)"><path fill="#f3f5fc" d="M -3.464844 3.886719 L 7.621094 -2.882812 L 11.699219 3.792969 L 0.613281 10.566406 Z M -3.464844 3.886719 " fill-opacity="1" fill-rule="nonzero"/></g></g></g></g></g></g></g></g><g fill="#090b18" fill-opacity="1"><g transform="translate(159.312605, 131.997398)"><g><path d="M 24.65625 -10.640625 C 24.65625 -12.222656 24.097656 -13.4375 22.984375 -14.28125 C 21.867188 -15.125 19.863281 -16.015625 16.96875 -16.953125 C 14.070312 -17.890625 11.773438 -18.8125 10.078125 -19.71875 C 5.472656 -22.207031 3.171875 -25.5625 3.171875 -29.78125 C 3.171875 -31.96875 3.785156 -33.921875 5.015625 -35.640625 C 6.253906 -37.359375 8.03125 -38.695312 10.34375 -39.65625 C 12.65625 -40.625 15.253906 -41.109375 18.140625 -41.109375 C 21.035156 -41.109375 23.613281 -40.582031 25.875 -39.53125 C 28.144531 -38.488281 29.90625 -37.007812 31.15625 -35.09375 C 32.40625 -33.1875 33.03125 -31.015625 33.03125 -28.578125 L 24.671875 -28.578125 C 24.671875 -30.429688 24.085938 -31.875 22.921875 -32.90625 C 21.753906 -33.9375 20.113281 -34.453125 18 -34.453125 C 15.957031 -34.453125 14.367188 -34.019531 13.234375 -33.15625 C 12.097656 -32.289062 11.53125 -31.15625 11.53125 -29.75 C 11.53125 -28.425781 12.191406 -27.316406 13.515625 -26.421875 C 14.847656 -25.535156 16.804688 -24.703125 19.390625 -23.921875 C 24.140625 -22.492188 27.597656 -20.722656 29.765625 -18.609375 C 31.941406 -16.492188 33.03125 -13.859375 33.03125 -10.703125 C 33.03125 -7.191406 31.703125 -4.4375 29.046875 -2.4375 C 26.390625 -0.4375 22.816406 0.5625 18.328125 0.5625 C 15.210938 0.5625 12.375 -0.0078125 9.8125 -1.15625 C 7.25 -2.300781 5.289062 -3.863281 3.9375 -5.84375 C 2.59375 -7.832031 1.921875 -10.132812 1.921875 -12.75 L 10.3125 -12.75 C 10.3125 -8.28125 12.984375 -6.046875 18.328125 -6.046875 C 20.316406 -6.046875 21.867188 -6.445312 22.984375 -7.25 C 24.097656 -8.0625 24.65625 -9.191406 24.65625 -10.640625 Z M 24.65625 -10.640625 "/></g></g></g><g fill="#090b18" fill-opacity="1"><g transform="translate(200.087845, 131.997398)"><g><path d="M 11.984375 -14.296875 L 11.984375 0 L 3.625 0 L 3.625 -40.5625 L 19.4375 -40.5625 C 22.488281 -40.5625 25.171875 -40.003906 27.484375 -38.890625 C 29.796875 -37.773438 31.570312 -36.191406 32.8125 -34.140625 C 34.050781 -32.085938 34.671875 -29.75 34.671875 -27.125 C 34.671875 -23.15625 33.3125 -20.023438 30.59375 -17.734375 C 27.875 -15.441406 24.109375 -14.296875 19.296875 -14.296875 Z M 11.984375 -21.0625 L 19.4375 -21.0625 C 21.644531 -21.0625 23.328125 -21.578125 24.484375 -22.609375 C 25.648438 -23.648438 26.234375 -25.140625 26.234375 -27.078125 C 26.234375 -29.066406 25.648438 -30.671875 24.484375 -31.890625 C 23.316406 -33.117188 21.703125 -33.75 19.640625 -33.78125 L 11.984375 -33.78125 Z M 11.984375 -21.0625 "/></g></g></g><g fill="#090b18" fill-opacity="1"><g transform="translate(242.59009, 131.997398)"><g><path d="M 11.984375 -6.71875 L 29.71875 -6.71875 L 29.71875 0 L 3.625 0 L 3.625 -40.5625 L 11.984375 -40.5625 Z M 11.984375 -6.71875 "/></g></g></g><g fill="#090b18" fill-opacity="1"><g transform="translate(279.187092, 131.997398)"><g><path d="M 12.5 0 L 4.15625 0 L 4.15625 -40.5625 L 12.5 -40.5625 Z M 12.5 0 "/></g></g></g><g fill="#090b18" fill-opacity="1"><g transform="translate(301.522376, 131.997398)"><g><path d="M 34.15625 -33.78125 L 21.734375 -33.78125 L 21.734375 0 L 13.375 0 L 13.375 -33.78125 L 1.109375 -33.78125 L 1.109375 -40.5625 L 34.15625 -40.5625 Z M 34.15625 -33.78125 "/></g></g></g></svg>