<svg xmlns="http://www.w3.org/2000/svg" xmlns:xlink="http://www.w3.org/1999/xlink" width="512" zoomAndPan="magnify" viewBox="0 0 384 383.999986" height="512" preserveAspectRatio="xMidYMid meet" version="1.0"><defs><g/><clipPath id="37efff7981"><path d="M 52.273438 94.730469 L 254.773438 94.730469 L 254.773438 186.230469 L 52.273438 186.230469 Z M 52.273438 94.730469 " clip-rule="nonzero"/></clipPath><clipPath id="861349fcb0"><path d="M 0.273438 1 L 202.773438 1 L 202.773438 92.230469 L 0.273438 92.230469 Z M 0.273438 1 " clip-rule="nonzero"/></clipPath><clipPath id="bc549a27d4"><rect x="0" width="203" y="0" height="93"/></clipPath><clipPath id="8e948a0003"><path d="M 211 113 L 279 113 L 279 197 L 211 197 Z M 211 113 " clip-rule="nonzero"/></clipPath><clipPath id="5de4c10399"><path d="M 206.015625 119.390625 L 276.917969 112.355469 L 284.84375 192.214844 L 213.941406 199.246094 Z M 206.015625 119.390625 " clip-rule="nonzero"/></clipPath><clipPath id="0c57edbf1e"><path d="M 206.015625 119.390625 L 276.917969 112.355469 L 284.84375 192.214844 L 213.941406 199.246094 Z M 206.015625 119.390625 " clip-rule="nonzero"/></clipPath><clipPath id="8a3f2a5913"><path d="M 258 88 L 338 88 L 338 187 L 258 187 Z M 258 88 " clip-rule="nonzero"/></clipPath><clipPath id="9cbe73e876"><path d="M 265.714844 88.226562 L 337.480469 94.019531 L 329.996094 186.71875 L 258.230469 180.925781 Z M 265.714844 88.226562 " clip-rule="nonzero"/></clipPath><clipPath id="0d5100e243"><path d="M 0 0.078125 L 79.679688 0.078125 L 79.679688 98.71875 L 0 98.71875 Z M 0 0.078125 " clip-rule="nonzero"/></clipPath><clipPath id="bff6b88888"><path d="M 7.714844 0.226562 L 79.480469 6.019531 L 71.996094 98.71875 L 0.230469 92.925781 Z M 7.714844 0.226562 " clip-rule="nonzero"/></clipPath><clipPath id="41662d55b4"><path d="M -338.460938 65.339844 L 258.097656 113.511719 L 265.585938 20.8125 L -330.972656 -27.359375 Z M -338.460938 65.339844 " clip-rule="nonzero"/></clipPath><clipPath id="a19a9f2e1c"><rect x="0" width="80" y="0" height="99"/></clipPath><clipPath id="59f699ef6f"><path d="M 47 168 L 67 168 L 67 188 L 47 188 Z M 47 168 " clip-rule="nonzero"/></clipPath><clipPath id="3af147a1d4"><path d="M 38.402344 176.929688 L 56.273438 160.421875 L 66.195312 171.164062 L 48.320312 187.667969 Z M 38.402344 176.929688 " clip-rule="nonzero"/></clipPath><clipPath id="1259397bfe"><path d="M 47.316406 168.695312 L 66.152344 171.203125 L 48.320312 187.667969 Z M 47.316406 168.695312 " clip-rule="nonzero"/></clipPath><clipPath id="60aac2dd96"><path d="M 0.28125 0.480469 L 19.238281 0.480469 L 19.238281 19.679688 L 0.28125 19.679688 Z M 0.28125 0.480469 " clip-rule="nonzero"/></clipPath><clipPath id="a6cdbcbc8a"><path d="M -8.597656 8.929688 L 9.273438 -7.578125 L 19.195312 3.164062 L 1.320312 19.667969 Z M -8.597656 8.929688 " clip-rule="nonzero"/></clipPath><clipPath id="24af95d278"><path d="M 0.316406 0.695312 L 19.152344 3.203125 L 1.320312 19.667969 Z M 0.316406 0.695312 " clip-rule="nonzero"/></clipPath><clipPath id="528eb851ee"><rect x="0" width="20" y="0" height="20"/></clipPath><clipPath id="e1ff1b5267"><path d="M 324 103 L 356 103 L 356 133 L 324 133 Z M 324 103 " clip-rule="nonzero"/></clipPath><clipPath id="bd60a73c14"><path d="M 312.515625 113.242188 L 344.175781 93.90625 L 355.792969 112.929688 L 324.136719 132.265625 Z M 312.515625 113.242188 " clip-rule="nonzero"/></clipPath><clipPath id="530ca0f882"><path d="M 328.308594 103.59375 L 355.722656 112.972656 L 324.136719 132.265625 Z M 328.308594 103.59375 " clip-rule="nonzero"/></clipPath><clipPath id="44bd09f00d"><path d="M 0 0.441406 L 31.921875 0.441406 L 31.921875 29.480469 L 0 29.480469 Z M 0 0.441406 " clip-rule="nonzero"/></clipPath><clipPath id="fb771cad97"><path d="M -11.484375 10.242188 L 20.175781 -9.09375 L 31.792969 9.929688 L 0.136719 29.265625 Z M -11.484375 10.242188 " clip-rule="nonzero"/></clipPath><clipPath id="40dc9c7f6d"><path d="M 4.308594 0.59375 L 31.722656 9.972656 L 0.136719 29.265625 Z M 4.308594 0.59375 " clip-rule="nonzero"/></clipPath><clipPath id="3fe5238680"><rect x="0" width="32" y="0" height="30"/></clipPath></defs><rect x="-38.4" width="460.8" fill="#ffffff" y="-38.399999" height="460.799983" fill-opacity="1"/><rect x="-38.4" width="460.8" fill="#090b18" y="-38.399999" height="460.799983" fill-opacity="1"/><g clip-path="url(#37efff7981)"><g transform="matrix(1, 0, 0, 1, 52, 94)"><g clip-path="url(#bc549a27d4)"><g clip-path="url(#861349fcb0)"><path fill="#4f8ef7" d="M 476.171875 62.582031 L 475.832031 62.527344 C 459.910156 34.03125 451.316406 19.765625 450.046875 19.738281 C 447.59375 16.367188 444.367188 13.359375 440.367188 10.707031 C 437.855469 9.332031 435.53125 8.847656 433.398438 9.253906 C 430.6875 8.972656 426.449219 13.058594 420.6875 21.515625 C 402.125 56.789062 391.820312 74.945312 389.773438 75.988281 C 382.988281 84.761719 376.402344 88.601562 370.007812 87.511719 C 365.570312 86.449219 361.089844 83.425781 356.558594 78.449219 L 346.644531 65.558594 C 331.28125 40.742188 322.078125 26.683594 319.023438 23.382812 C 315.109375 17.855469 310.507812 14.496094 305.222656 13.308594 C 300.511719 15.332031 296.632812 19.082031 293.597656 24.5625 C 275.113281 62.101562 265.214844 80.394531 263.898438 79.4375 C 259.492188 85.203125 254.425781 88.203125 248.699219 88.4375 C 244 88.152344 238.605469 84.78125 232.519531 78.332031 C 230.882812 76.886719 227.566406 72.773438 222.570312 66 L 192.230469 21.96875 C 188.085938 16.351562 183.226562 12.820312 177.652344 11.371094 C 172.53125 13.683594 168.519531 17.96875 165.613281 24.226562 L 139.628906 84.289062 C 136.402344 89.695312 132.609375 92.699219 128.257812 93.300781 C 124.257812 93.113281 120.269531 90.347656 116.28125 85 L 83.507812 24.003906 C 80.125 18.851562 77.277344 15.46875 74.964844 13.855469 C 74.71875 13.246094 72.949219 12.453125 69.660156 11.480469 C 66.902344 11.285156 62.464844 15.136719 56.355469 23.039062 C 53.132812 27.234375 44.984375 41.351562 31.910156 65.386719 L 22.914062 78.554688 C 21.433594 80.433594 19.171875 82.574219 16.132812 84.988281 C 14.183594 86.050781 12.285156 86.9375 10.433594 87.640625 C 10.265625 87.777344 9.605469 87.777344 8.449219 87.644531 C 5.023438 87.402344 2.539062 86.660156 1 85.429688 C -1.410156 84.234375 -4.257812 81.617188 -7.539062 77.578125 C -10.972656 73.152344 -14.003906 68.59375 -16.625 63.90625 C -29.78125 39.15625 -38.136719 24.605469 -41.683594 20.261719 C -44.914062 15.832031 -48.058594 12.582031 -51.121094 10.507812 C -53.421875 9.066406 -55.679688 8.390625 -57.902344 8.480469 C -61.328125 8.765625 -64.597656 10.019531 -67.707031 12.238281 C -73.199219 16.539062 -77.503906 20.773438 -80.625 24.941406 L -93.753906 43.492188 C -99.191406 52.011719 -105.949219 63.398438 -114.03125 77.652344 C -114.136719 77.804688 -114.414062 77.820312 -114.867188 77.699219 C -118.617188 76.171875 -121.109375 74.664062 -122.347656 73.175781 C -108.902344 50.820312 -98.976562 35.539062 -92.5625 27.332031 C -80.796875 11.058594 -69.328125 2.375 -58.160156 1.273438 C -51.425781 1.265625 -45.511719 4.335938 -40.414062 10.488281 L -30.46875 24.285156 C -14.074219 54.695312 -5.070312 70.421875 -3.460938 71.457031 L 2.316406 77.984375 L 5.707031 80.25 C 9.347656 80.75 10.324219 80.996094 8.644531 80.988281 C 11.816406 79.574219 13.382812 78.730469 13.34375 78.449219 L 21.511719 68.960938 L 52.894531 16.492188 C 58.757812 9.039062 64.269531 5.144531 69.433594 4.808594 C 75.566406 4.789062 81.765625 9.488281 88.03125 18.898438 L 117.378906 74.996094 L 122.472656 82.53125 C 124.667969 85.371094 126.71875 86.839844 128.628906 86.933594 C 128.28125 86.871094 127.960938 86.933594 127.664062 87.117188 C 130.144531 85.902344 131.320312 85.167969 131.183594 84.921875 L 137.261719 75.453125 C 151.707031 39.089844 159.707031 20.40625 161.261719 19.402344 C 166.9375 10.203125 172.257812 5.488281 177.226562 5.261719 C 181.683594 5.953125 184.40625 6.730469 185.382812 7.59375 C 188.792969 9.613281 192.15625 12.554688 195.46875 16.425781 L 233.140625 70.179688 C 237.492188 76.3125 242.792969 80.460938 249.046875 82.625 C 251.921875 83.597656 256.523438 79.746094 262.851562 71.070312 C 264.789062 68.949219 271.972656 54.996094 284.410156 29.214844 C 287.191406 23.9375 289.871094 19.660156 292.457031 16.390625 C 296.503906 11.273438 300.652344 8.394531 304.902344 7.753906 C 309.035156 8.363281 311.5625 9.066406 312.484375 9.863281 C 315.660156 11.71875 318.753906 14.449219 321.769531 18.054688 L 356.03125 69.4375 C 360.933594 76.121094 365.90625 80.40625 370.957031 82.296875 C 374.855469 83.246094 379.777344 80.035156 385.726562 72.660156 C 387.113281 72.621094 397.414062 54.546875 416.632812 18.4375 C 422.34375 9.65625 427.546875 5.039062 432.234375 4.585938 C 445.8125 2.199219 460.457031 21.53125 476.171875 62.582031 " fill-opacity="1" fill-rule="nonzero"/></g></g></g></g><g clip-path="url(#8e948a0003)"><g clip-path="url(#5de4c10399)"><g clip-path="url(#0c57edbf1e)"><path fill="#f3f5fc" d="M 260.523438 114.136719 C 262.453125 113.660156 262.621094 113.828125 263.089844 113.855469 C 263.007812 114.191406 250.011719 159.492188 249.589844 161.601562 C 249.902344 161.738281 250.375 161.980469 250.199219 162.40625 C 248.710938 165.984375 246.539062 170.6875 250.1875 174.496094 C 257.050781 181.671875 252.273438 192.253906 245.046875 195.355469 C 237.640625 198.53125 228.503906 191.957031 232.308594 181.070312 C 231.964844 180.214844 231.933594 179.226562 232.472656 178.433594 C 232.007812 179.273438 231.125 179.632812 230.199219 179.601562 C 224.390625 186.132812 214.714844 184.558594 212.164062 177.628906 C 208.914062 168.808594 218.066406 158.390625 227.039062 160.582031 C 228.582031 160.960938 231.253906 162.445312 234.984375 160.058594 C 236.800781 158.894531 238.09375 157.328125 239.578125 155.746094 C 239.890625 155.410156 240.402344 155.566406 240.644531 155.898438 C 240.769531 155.785156 240.898438 155.675781 241.027344 155.566406 C 241.15625 156.289062 242.601562 160.589844 242.714844 160.773438 C 242.121094 160.972656 241.960938 161.625 241.632812 162.089844 C 238.867188 166.46875 236.101562 170.847656 233.308594 175.210938 C 233.671875 176.015625 233.457031 176.914062 232.984375 177.621094 C 233.382812 176.855469 234.113281 176.320312 234.996094 176.386719 C 237.863281 171.992188 240.574219 167.492188 243.386719 163.058594 C 243.625 162.566406 244.199219 162.101562 243.953125 161.503906 C 241.789062 153.113281 241.367188 158.097656 243.480469 149.449219 C 245.609375 140.746094 248.773438 130.285156 252.40625 122.09375 C 254.425781 117.546875 257.175781 115.339844 260.523438 114.132812 Z M 246.207031 152.363281 C 245.179688 152.859375 244.847656 154.335938 245.585938 155.210938 C 246.5 156.480469 248.816406 156.09375 249.089844 154.492188 C 249.5 152.914062 247.597656 151.539062 246.207031 152.363281 Z M 216.136719 170.628906 C 213.707031 176.40625 218.246094 181.828125 224.390625 179.109375 C 228.460938 177.3125 231.152344 172.683594 230.160156 168.363281 C 229.574219 165.804688 227.023438 163.980469 224.425781 164.152344 C 220.679688 164.40625 217.554688 167.261719 216.136719 170.628906 Z M 240.972656 176.625 C 236.398438 178.847656 234.140625 184.859375 235.976562 188.914062 C 238.699219 194.914062 247.28125 192.320312 249.226562 184.726562 C 250.828125 178.496094 245.917969 174.222656 240.972656 176.625 Z M 256.230469 141.984375 C 256.089844 142.558594 252.414062 155.140625 251.757812 157.992188 C 259.746094 150.824219 276.308594 138.835938 278.109375 130.816406 C 278.535156 128.925781 278.507812 126.234375 277.667969 124.503906 C 277.523438 124.242188 277.359375 123.988281 277.207031 123.730469 C 276.722656 124.027344 256.355469 141.488281 256.230469 141.984375 Z M 256.230469 141.984375 " fill-opacity="1" fill-rule="nonzero"/></g></g></g><g clip-path="url(#8a3f2a5913)"><g clip-path="url(#9cbe73e876)"><g transform="matrix(1, 0, 0, 1, 258, 88)"><g clip-path="url(#a19a9f2e1c)"><g clip-path="url(#0d5100e243)"><g clip-path="url(#bff6b88888)"><g clip-path="url(#41662d55b4)"><path fill="#a87fff" d="M 260.691406 82.714844 L 260.359375 82.636719 C 246.78125 52.949219 239.363281 38.039062 238.101562 37.910156 C 235.925781 34.351562 232.949219 31.09375 229.179688 28.128906 C 226.785156 26.554688 224.507812 25.886719 222.347656 26.121094 C 219.671875 25.621094 215.117188 29.355469 208.691406 37.320312 C 187.351562 70.984375 175.621094 88.25 173.492188 89.125 C 166.027344 97.324219 159.152344 100.621094 152.867188 99.019531 C 148.527344 97.601562 144.304688 94.230469 140.191406 88.902344 L 131.34375 75.257812 C 118.03125 49.285156 109.984375 34.53125 107.210938 30.996094 C 103.75 25.171875 99.4375 21.453125 94.265625 19.84375 C 89.402344 21.480469 85.238281 24.90625 81.769531 30.125 C 60.324219 66.054688 48.984375 83.492188 47.75 82.433594 C 42.894531 87.824219 37.601562 90.40625 31.875 90.179688 C 27.214844 89.515625 22.109375 85.722656 16.5625 78.804688 C 15.050781 77.230469 12.074219 72.867188 7.640625 65.710938 L -19.058594 19.378906 C -22.738281 13.445312 -27.296875 9.535156 -32.738281 7.644531 C -38.027344 9.535156 -42.371094 13.484375 -45.769531 19.488281 L -76.503906 77.265625 C -80.160156 82.394531 -84.179688 85.082031 -88.566406 85.332031 C -92.535156 84.824219 -96.292969 81.746094 -99.835938 76.09375 L -127.59375 12.65625 C -130.550781 7.25 -133.117188 3.648438 -135.289062 1.851562 C -135.488281 1.226562 -137.1875 0.296875 -140.390625 -0.9375 C -143.121094 -1.355469 -147.851562 2.128906 -154.578125 9.511719 C -158.128906 13.433594 -167.386719 26.847656 -182.351562 49.753906 L -192.378906 62.15625 C -194.007812 63.90625 -196.433594 65.863281 -199.65625 68.019531 C -201.6875 68.925781 -203.648438 69.652344 -205.550781 70.207031 C -205.730469 70.328125 -206.390625 70.277344 -207.53125 70.050781 C -210.925781 69.53125 -213.34375 68.597656 -214.777344 67.242188 C -217.082031 65.855469 -219.710938 63.019531 -222.65625 58.730469 C -225.722656 54.039062 -228.375 49.253906 -230.613281 44.371094 C -241.734375 18.640625 -248.890625 3.46875 -252.074219 -1.148438 C -254.941406 -5.824219 -257.816406 -9.316406 -260.699219 -11.632812 C -262.875 -13.253906 -265.074219 -14.109375 -267.292969 -14.199219 C -270.730469 -14.1875 -274.089844 -13.203125 -277.371094 -11.238281 C -283.191406 -7.394531 -287.820312 -3.523438 -291.269531 0.378906 L -305.847656 17.816406 C -311.953125 25.871094 -319.605469 36.675781 -328.808594 50.234375 C -328.925781 50.375 -329.207031 50.367188 -329.644531 50.210938 C -333.257812 48.386719 -335.621094 46.683594 -336.738281 45.101562 C -321.535156 23.898438 -310.410156 9.464844 -303.363281 1.800781 C -290.320312 -13.46875 -278.191406 -21.203125 -266.972656 -21.402344 C -260.261719 -20.867188 -254.613281 -17.332031 -250.027344 -10.789062 L -241.222656 3.765625 C -227.328125 35.398438 -219.621094 51.796875 -218.101562 52.957031 L -212.867188 59.925781 L -209.667969 62.460938 C -206.082031 63.25 -205.125 63.574219 -206.800781 63.433594 C -203.523438 62.277344 -201.894531 61.5625 -201.914062 61.277344 L -193.007812 52.480469 L -157.503906 2.707031 C -151.058594 -4.25 -145.25 -7.6875 -140.074219 -7.609375 C -133.960938 -7.132812 -128.160156 -1.949219 -122.675781 7.933594 L -97.9375 66.210938 L -93.464844 74.132812 C -91.503906 77.140625 -89.578125 78.769531 -87.683594 79.015625 C -88.023438 78.925781 -88.351562 78.960938 -88.660156 79.121094 C -86.089844 78.109375 -84.859375 77.472656 -84.972656 77.214844 L -78.15625 68.265625 C -60.828125 33.183594 -51.351562 15.203125 -49.722656 14.328125 C -43.324219 5.617188 -37.640625 1.347656 -32.671875 1.519531 C -28.28125 2.570312 -25.632812 3.5625 -24.726562 4.503906 C -21.488281 6.785156 -18.375 9.992188 -15.382812 14.117188 L 17.835938 70.730469 C 21.679688 77.191406 26.628906 81.753906 32.6875 84.414062 C 35.476562 85.613281 40.375 82.144531 47.378906 74.007812 C 49.480469 72.046875 57.765625 58.71875 72.238281 34.023438 C 75.433594 28.984375 78.453125 24.941406 81.292969 21.890625 C 85.734375 17.113281 90.101562 14.574219 94.390625 14.28125 C 98.460938 15.21875 100.925781 16.125 101.78125 16.992188 C 104.796875 19.097656 107.660156 22.070312 110.371094 25.90625 L 140.386719 79.882812 C 144.734375 86.933594 149.351562 91.609375 154.234375 93.898438 C 158.042969 95.160156 163.207031 92.351562 169.726562 85.484375 C 171.113281 85.554688 182.839844 68.367188 204.898438 33.925781 C 211.300781 25.628906 216.855469 21.445312 221.566406 21.371094 C 235.289062 20.085938 248.332031 40.535156 260.691406 82.714844 " fill-opacity="1" fill-rule="nonzero"/></g></g></g></g></g></g></g><g clip-path="url(#59f699ef6f)"><g clip-path="url(#3af147a1d4)"><g clip-path="url(#1259397bfe)"><g transform="matrix(1, 0, 0, 1, 47, 168)"><g clip-path="url(#528eb851ee)"><g clip-path="url(#60aac2dd96)"><g clip-path="url(#a6cdbcbc8a)"><g clip-path="url(#24af95d278)"><path fill="#090b18" d="M -8.597656 8.929688 L 9.234375 -7.539062 L 19.152344 3.203125 L 1.320312 19.667969 Z M -8.597656 8.929688 " fill-opacity="1" fill-rule="nonzero"/></g></g></g></g></g></g></g></g><g clip-path="url(#e1ff1b5267)"><g clip-path="url(#bd60a73c14)"><g clip-path="url(#530ca0f882)"><g transform="matrix(1, 0, 0, 1, 324, 103)"><g clip-path="url(#3fe5238680)"><g clip-path="url(#44bd09f00d)"><g clip-path="url(#fb771cad97)"><g clip-path="url(#40dc9c7f6d)"><path fill="#090b18" d="M -11.484375 10.242188 L 20.101562 -9.050781 L 31.71875 9.972656 L 0.136719 29.265625 Z M -11.484375 10.242188 " fill-opacity="1" fill-rule="nonzero"/></g></g></g></g></g></g></g></g><g fill="#f3f5fc" fill-opacity="1"><g transform="translate(103.243571, 281.22484)"><g><path d="M 24.65625 -10.640625 C 24.65625 -12.222656 24.097656 -13.4375 22.984375 -14.28125 C 21.867188 -15.125 19.863281 -16.015625 16.96875 -16.953125 C 14.070312 -17.890625 11.773438 -18.8125 10.078125 -19.71875 C 5.472656 -22.207031 3.171875 -25.5625 3.171875 -29.78125 C 3.171875 -31.96875 3.785156 -33.921875 5.015625 -35.640625 C 6.253906 -37.359375 8.03125 -38.695312 10.34375 -39.65625 C 12.65625 -40.625 15.253906 -41.109375 18.140625 -41.109375 C 21.035156 -41.109375 23.613281 -40.582031 25.875 -39.53125 C 28.144531 -38.488281 29.90625 -37.007812 31.15625 -35.09375 C 32.40625 -33.1875 33.03125 -31.015625 33.03125 -28.578125 L 24.671875 -28.578125 C 24.671875 -30.429688 24.085938 -31.875 22.921875 -32.90625 C 21.753906 -33.9375 20.113281 -34.453125 18 -34.453125 C 15.957031 -34.453125 14.367188 -34.019531 13.234375 -33.15625 C 12.097656 -32.289062 11.53125 -31.15625 11.53125 -29.75 C 11.53125 -28.425781 12.191406 -27.316406 13.515625 -26.421875 C 14.847656 -25.535156 16.804688 -24.703125 19.390625 -23.921875 C 24.140625 -22.492188 27.597656 -20.722656 29.765625 -18.609375 C 31.941406 -16.492188 33.03125 -13.859375 33.03125 -10.703125 C 33.03125 -7.191406 31.703125 -4.4375 29.046875 -2.4375 C 26.390625 -0.4375 22.816406 0.5625 18.328125 0.5625 C 15.210938 0.5625 12.375 -0.0078125 9.8125 -1.15625 C 7.25 -2.300781 5.289062 -3.863281 3.9375 -5.84375 C 2.59375 -7.832031 1.921875 -10.132812 1.921875 -12.75 L 10.3125 -12.75 C 10.3125 -8.28125 12.984375 -6.046875 18.328125 -6.046875 C 20.316406 -6.046875 21.867188 -6.445312 22.984375 -7.25 C 24.097656 -8.0625 24.65625 -9.191406 24.65625 -10.640625 Z M 24.65625 -10.640625 "/></g></g></g><g fill="#f3f5fc" fill-opacity="1"><g transform="translate(144.018809, 281.22484)"><g><path d="M 11.984375 -14.296875 L 11.984375 0 L 3.625 0 L 3.625 -40.5625 L 19.4375 -40.5625 C 22.488281 -40.5625 25.171875 -40.003906 27.484375 -38.890625 C 29.796875 -37.773438 31.570312 -36.191406 32.8125 -34.140625 C 34.050781 -32.085938 34.671875 -29.75 34.671875 -27.125 C 34.671875 -23.15625 33.3125 -20.023438 30.59375 -17.734375 C 27.875 -15.441406 24.109375 -14.296875 19.296875 -14.296875 Z M 11.984375 -21.0625 L 19.4375 -21.0625 C 21.644531 -21.0625 23.328125 -21.578125 24.484375 -22.609375 C 25.648438 -23.648438 26.234375 -25.140625 26.234375 -27.078125 C 26.234375 -29.066406 25.648438 -30.671875 24.484375 -31.890625 C 23.316406 -33.117188 21.703125 -33.75 19.640625 -33.78125 L 11.984375 -33.78125 Z M 11.984375 -21.0625 "/></g></g></g><g fill="#f3f5fc" fill-opacity="1"><g transform="translate(186.521052, 281.22484)"><g><path d="M 11.984375 -6.71875 L 29.71875 -6.71875 L 29.71875 0 L 3.625 0 L 3.625 -40.5625 L 11.984375 -40.5625 Z M 11.984375 -6.71875 "/></g></g></g><g fill="#f3f5fc" fill-opacity="1"><g transform="translate(223.118053, 281.22484)"><g><path d="M 12.5 0 L 4.15625 0 L 4.15625 -40.5625 L 12.5 -40.5625 Z M 12.5 0 "/></g></g></g><g fill="#f3f5fc" fill-opacity="1"><g transform="translate(245.453336, 281.22484)"><g><path d="M 34.15625 -33.78125 L 21.734375 -33.78125 L 21.734375 0 L 13.375 0 L 13.375 -33.78125 L 1.109375 -33.78125 L 1.109375 -40.5625 L 34.15625 -40.5625 Z M 34.15625 -33.78125 "/></g></g></g></svg>