<svg xmlns="http://www.w3.org/2000/svg" xmlns:xlink="http://www.w3.org/1999/xlink" width="512" zoomAndPan="magnify" viewBox="0 0 384 383.999986" height="512" preserveAspectRatio="xMidYMid meet" version="1.0"><defs><g/><clipPath id="6a088739dd"><path d="M 52.273438 92.4375 L 254.773438 92.4375 L 254.773438 183.9375 L 52.273438 183.9375 Z M 52.273438 92.4375 " clip-rule="nonzero"/></clipPath><clipPath id="c81a0c3d27"><path d="M 0.273438 0.640625 L 202.773438 0.640625 L 202.773438 91.9375 L 0.273438 91.9375 Z M 0.273438 0.640625 " clip-rule="nonzero"/></clipPath><clipPath id="758aa3d439"><rect x="0" width="203" y="0" height="92"/></clipPath><clipPath id="d839784fed"><path d="M 211 111 L 279 111 L 279 194 L 211 194 Z M 211 111 " clip-rule="nonzero"/></clipPath><clipPath id="9953001bf1"><path d="M 206.015625 117.097656 L 276.917969 110.0625 L 284.84375 189.921875 L 213.941406 196.957031 Z M 206.015625 117.097656 " clip-rule="nonzero"/></clipPath><clipPath id="6490882652"><path d="M 206.015625 117.097656 L 276.917969 110.0625 L 284.84375 189.921875 L 213.941406 196.957031 Z M 206.015625 117.097656 " clip-rule="nonzero"/></clipPath><clipPath id="9bba1098b5"><path d="M 258 85 L 338 85 L 338 185 L 258 185 Z M 258 85 " clip-rule="nonzero"/></clipPath><clipPath id="8ee2412e69"><path d="M 265.714844 85.933594 L 337.480469 91.730469 L 329.996094 184.429688 L 258.230469 178.632812 Z M 265.714844 85.933594 " clip-rule="nonzero"/></clipPath><clipPath id="54afd31102"><path d="M 0 0.921875 L 79.679688 0.921875 L 79.679688 99.558594 L 0 99.558594 Z M 0 0.921875 " clip-rule="nonzero"/></clipPath><clipPath id="19156f24e3"><path d="M 7.714844 0.933594 L 79.480469 6.730469 L 71.996094 99.429688 L 0.230469 93.632812 Z M 7.714844 0.933594 " clip-rule="nonzero"/></clipPath><clipPath id="9d0a9bae55"><path d="M -338.460938 66.046875 L 258.097656 114.222656 L 265.585938 21.523438 L -330.972656 -26.648438 Z M -338.460938 66.046875 " clip-rule="nonzero"/></clipPath><clipPath id="58b25af22d"><rect x="0" width="80" y="0" height="100"/></clipPath><clipPath id="df3babeafe"><path d="M 47 166 L 67 166 L 67 186 L 47 186 Z M 47 166 " clip-rule="nonzero"/></clipPath><clipPath id="eb2494a108"><path d="M 38.402344 174.636719 L 56.273438 158.132812 L 66.195312 168.871094 L 48.320312 185.378906 Z M 38.402344 174.636719 " clip-rule="nonzero"/></clipPath><clipPath id="d77dc0c94b"><path d="M 47.316406 166.402344 L 66.152344 168.910156 L 48.320312 185.378906 Z M 47.316406 166.402344 " clip-rule="nonzero"/></clipPath><clipPath id="ed67a42e3b"><path d="M 0.28125 0.320312 L 19.238281 0.320312 L 19.238281 19.519531 L 0.28125 19.519531 Z M 0.28125 0.320312 " clip-rule="nonzero"/></clipPath><clipPath id="e4d2196562"><path d="M -8.597656 8.636719 L 9.273438 -7.867188 L 19.195312 2.871094 L 1.320312 19.378906 Z M -8.597656 8.636719 " clip-rule="nonzero"/></clipPath><clipPath id="350cedcde8"><path d="M 0.316406 0.402344 L 19.152344 2.910156 L 1.320312 19.378906 Z M 0.316406 0.402344 " clip-rule="nonzero"/></clipPath><clipPath id="fdc86659c9"><rect x="0" width="20" y="0" height="20"/></clipPath><clipPath id="5479766f67"><path d="M 324 101 L 356 101 L 356 130 L 324 130 Z M 324 101 " clip-rule="nonzero"/></clipPath><clipPath id="f97801915f"><path d="M 312.515625 110.949219 L 344.175781 91.613281 L 355.792969 110.636719 L 324.136719 129.976562 Z M 312.515625 110.949219 " clip-rule="nonzero"/></clipPath><clipPath id="45e8593743"><path d="M 328.308594 101.304688 L 355.722656 110.683594 L 324.136719 129.976562 Z M 328.308594 101.304688 " clip-rule="nonzero"/></clipPath><clipPath id="d9d84490f0"><path d="M 0 0.28125 L 31.921875 0.28125 L 31.921875 29 L 0 29 Z M 0 0.28125 " clip-rule="nonzero"/></clipPath><clipPath id="16489bb319"><path d="M -11.484375 9.949219 L 20.175781 -9.386719 L 31.792969 9.636719 L 0.136719 28.976562 Z M -11.484375 9.949219 " clip-rule="nonzero"/></clipPath><clipPath id="a18472f1b6"><path d="M 4.308594 0.304688 L 31.722656 9.683594 L 0.136719 28.976562 Z M 4.308594 0.304688 " clip-rule="nonzero"/></clipPath><clipPath id="22d50988f8"><rect x="0" width="32" y="0" height="29"/></clipPath></defs><rect x="-38.4" width="460.8" fill="#ffffff" y="-38.399999" height="460.799983" fill-opacity="1"/><rect x="-38.4" width="460.8" fill="#f3f5fc" y="-38.399999" height="460.799983" fill-opacity="1"/><g clip-path="url(#6a088739dd)"><g transform="matrix(1, 0, 0, 1, 52, 92)"><g clip-path="url(#758aa3d439)"><g clip-path="url(#c81a0c3d27)"><path fill="#4f8ef7" d="M 476.171875 62.289062 L 475.832031 62.238281 C 459.910156 33.738281 451.316406 19.476562 450.046875 19.445312 C 447.59375 16.078125 444.367188 13.066406 440.367188 10.417969 C 437.855469 9.042969 435.53125 8.558594 433.398438 8.964844 C 430.6875 8.683594 426.449219 12.769531 420.6875 21.226562 C 402.125 56.496094 391.820312 74.65625 389.773438 75.695312 C 382.988281 84.472656 376.402344 88.3125 370.007812 87.21875 C 365.570312 86.15625 361.089844 83.136719 356.558594 78.15625 L 346.644531 65.265625 C 331.28125 40.449219 322.078125 26.390625 319.023438 23.09375 C 315.109375 17.5625 310.507812 14.207031 305.222656 13.019531 C 300.511719 15.039062 296.632812 18.789062 293.597656 24.273438 C 275.113281 61.8125 265.214844 80.101562 263.898438 79.148438 C 259.492188 84.914062 254.425781 87.914062 248.699219 88.148438 C 244 87.859375 238.605469 84.492188 232.519531 78.042969 C 230.882812 76.59375 227.566406 72.484375 222.570312 65.710938 L 192.230469 21.675781 C 188.085938 16.058594 183.226562 12.527344 177.652344 11.082031 C 172.53125 13.390625 168.519531 17.675781 165.613281 23.9375 L 139.628906 83.996094 C 136.402344 89.402344 132.609375 92.40625 128.257812 93.011719 C 124.257812 92.820312 120.269531 90.054688 116.28125 84.710938 L 83.507812 23.710938 C 80.125 18.558594 77.277344 15.175781 74.964844 13.5625 C 74.71875 12.953125 72.949219 12.164062 69.660156 11.1875 C 66.902344 10.996094 62.464844 14.847656 56.355469 22.746094 C 53.132812 26.945312 44.984375 41.058594 31.910156 65.09375 L 22.914062 78.261719 C 21.433594 80.140625 19.171875 82.285156 16.132812 84.695312 C 14.183594 85.761719 12.285156 86.644531 10.433594 87.351562 C 10.265625 87.484375 9.605469 87.488281 8.449219 87.355469 C 5.023438 87.109375 2.539062 86.371094 1 85.136719 C -1.410156 83.941406 -4.257812 81.324219 -7.539062 77.285156 C -10.972656 72.859375 -14.003906 68.300781 -16.625 63.613281 C -29.78125 38.863281 -38.136719 24.316406 -41.683594 19.96875 C -44.914062 15.539062 -48.058594 12.289062 -51.121094 10.214844 C -53.421875 8.773438 -55.679688 8.097656 -57.902344 8.1875 C -61.328125 8.472656 -64.597656 9.726562 -67.707031 11.949219 C -73.199219 16.246094 -77.503906 20.480469 -80.625 24.648438 L -93.753906 43.203125 C -99.191406 51.722656 -105.949219 63.109375 -114.03125 77.363281 C -114.136719 77.515625 -114.414062 77.527344 -114.867188 77.40625 C -118.617188 75.878906 -121.109375 74.371094 -122.347656 72.882812 C -108.902344 50.527344 -98.976562 35.246094 -92.5625 27.039062 C -80.796875 10.769531 -69.328125 2.082031 -58.160156 0.980469 C -51.425781 0.972656 -45.511719 4.046875 -40.414062 10.195312 L -30.46875 23.992188 C -14.074219 54.40625 -5.070312 70.128906 -3.460938 71.167969 L 2.316406 77.691406 L 5.707031 79.960938 C 9.347656 80.457031 10.324219 80.703125 8.644531 80.699219 C 11.816406 79.285156 13.382812 78.4375 13.34375 78.15625 L 21.511719 68.667969 L 52.894531 16.199219 C 58.757812 8.746094 64.269531 4.851562 69.433594 4.515625 C 75.566406 4.5 81.765625 9.195312 88.03125 18.609375 L 117.378906 74.707031 L 122.472656 82.238281 C 124.667969 85.082031 126.71875 86.546875 128.628906 86.640625 C 128.28125 86.582031 127.960938 86.644531 127.664062 86.828125 C 130.144531 85.609375 131.320312 84.878906 131.183594 84.628906 L 137.261719 75.160156 C 151.707031 38.796875 159.707031 20.113281 161.261719 19.109375 C 166.9375 9.910156 172.257812 5.199219 177.226562 4.972656 C 181.683594 5.664062 184.40625 6.441406 185.382812 7.304688 C 188.792969 9.320312 192.15625 12.265625 195.46875 16.136719 L 233.140625 69.890625 C 237.492188 76.023438 242.792969 80.171875 249.046875 82.332031 C 251.921875 83.304688 256.523438 79.453125 262.851562 70.78125 C 264.789062 68.65625 271.972656 54.707031 284.410156 28.925781 C 287.191406 23.644531 289.871094 19.371094 292.457031 16.101562 C 296.503906 10.980469 300.652344 8.101562 304.902344 7.464844 C 309.035156 8.070312 311.5625 8.773438 312.484375 9.570312 C 315.660156 11.429688 318.753906 14.160156 321.769531 17.765625 L 356.03125 69.148438 C 360.933594 75.828125 365.90625 80.113281 370.957031 82.007812 C 374.855469 82.953125 379.777344 79.742188 385.726562 72.371094 C 387.113281 72.328125 397.414062 54.253906 416.632812 18.148438 C 422.34375 9.363281 427.546875 4.746094 432.234375 4.292969 C 445.8125 1.90625 460.457031 21.238281 476.171875 62.289062 " fill-opacity="1" fill-rule="nonzero"/></g></g></g></g><g clip-path="url(#d839784fed)"><g clip-path="url(#9953001bf1)"><g clip-path="url(#6490882652)"><path fill="#090b18" d="M 260.523438 111.84375 C 262.453125 111.371094 262.621094 111.539062 263.089844 111.566406 C 263.007812 111.902344 250.011719 157.203125 249.589844 159.3125 C 249.902344 159.445312 250.375 159.691406 250.199219 160.113281 C 248.710938 163.691406 246.539062 168.394531 250.1875 172.207031 C 257.050781 179.382812 252.273438 189.964844 245.046875 193.066406 C 237.640625 196.242188 228.503906 189.667969 232.308594 178.78125 C 231.964844 177.921875 231.933594 176.933594 232.472656 176.144531 C 232.007812 176.980469 231.125 177.34375 230.199219 177.3125 C 224.390625 183.839844 214.714844 182.265625 212.164062 175.335938 C 208.914062 166.519531 218.066406 156.097656 227.039062 158.292969 C 228.582031 158.667969 231.253906 160.152344 234.984375 157.765625 C 236.800781 156.605469 238.09375 155.039062 239.578125 153.453125 C 239.890625 153.121094 240.402344 153.273438 240.644531 153.605469 C 240.769531 153.496094 240.898438 153.382812 241.027344 153.277344 C 241.15625 153.996094 242.601562 158.296875 242.714844 158.480469 C 242.121094 158.683594 241.960938 159.335938 241.632812 159.796875 C 238.867188 164.179688 236.101562 168.558594 233.308594 172.917969 C 233.671875 173.722656 233.457031 174.621094 232.984375 175.332031 C 233.382812 174.5625 234.113281 174.03125 234.996094 174.097656 C 237.863281 169.699219 240.574219 165.199219 243.386719 160.765625 C 243.625 160.277344 244.199219 159.808594 243.953125 159.214844 C 241.789062 150.820312 241.367188 155.808594 243.480469 147.15625 C 245.609375 138.453125 248.773438 127.992188 252.40625 119.804688 C 254.425781 115.257812 257.175781 113.050781 260.523438 111.84375 Z M 246.207031 150.074219 C 245.179688 150.566406 244.847656 152.046875 245.585938 152.917969 C 246.5 154.1875 248.816406 153.804688 249.089844 152.203125 C 249.5 150.621094 247.597656 149.246094 246.207031 150.074219 Z M 216.136719 168.339844 C 213.707031 174.117188 218.246094 179.535156 224.390625 176.820312 C 228.460938 175.019531 231.152344 170.390625 230.160156 166.074219 C 229.574219 163.511719 227.023438 161.6875 224.425781 161.863281 C 220.679688 162.113281 217.554688 164.972656 216.136719 168.339844 Z M 240.972656 174.335938 C 236.398438 176.558594 234.140625 182.570312 235.976562 186.621094 C 238.699219 192.625 247.28125 190.027344 249.226562 182.433594 C 250.828125 176.207031 245.917969 171.933594 240.972656 174.335938 Z M 256.230469 139.695312 C 256.089844 140.269531 252.414062 152.847656 251.757812 155.699219 C 259.746094 148.53125 276.308594 136.546875 278.109375 128.527344 C 278.535156 126.636719 278.507812 123.945312 277.667969 122.214844 C 277.523438 121.953125 277.359375 121.699219 277.207031 121.441406 C 276.722656 121.738281 256.355469 139.199219 256.230469 139.695312 Z M 256.230469 139.695312 " fill-opacity="1" fill-rule="nonzero"/></g></g></g><g clip-path="url(#9bba1098b5)"><g clip-path="url(#8ee2412e69)"><g transform="matrix(1, 0, 0, 1, 258, 85)"><g clip-path="url(#58b25af22d)"><g clip-path="url(#54afd31102)"><g clip-path="url(#19156f24e3)"><g clip-path="url(#9d0a9bae55)"><path fill="#a87fff" d="M 260.691406 83.425781 L 260.359375 83.34375 C 246.78125 53.65625 239.363281 38.75 238.101562 38.617188 C 235.925781 35.0625 232.949219 31.800781 229.179688 28.839844 C 226.785156 27.265625 224.507812 26.59375 222.347656 26.828125 C 219.671875 26.328125 215.117188 30.0625 208.691406 38.027344 C 187.351562 71.691406 175.621094 88.960938 173.492188 89.832031 C 166.027344 98.035156 159.152344 101.332031 152.867188 99.730469 C 148.527344 98.3125 144.304688 94.941406 140.191406 89.613281 L 131.34375 75.964844 C 118.03125 49.992188 109.984375 35.238281 107.210938 31.707031 C 103.75 25.878906 99.4375 22.160156 94.265625 20.554688 C 89.402344 22.1875 85.238281 25.617188 81.769531 30.835938 C 60.324219 66.765625 48.984375 84.199219 47.75 83.140625 C 42.894531 88.535156 37.601562 91.117188 31.875 90.890625 C 27.214844 90.222656 22.109375 86.433594 16.5625 79.511719 C 15.050781 77.9375 12.074219 73.574219 7.640625 66.421875 L -19.058594 20.089844 C -22.738281 14.15625 -27.296875 10.246094 -32.738281 8.355469 C -38.027344 10.246094 -42.371094 14.191406 -45.769531 20.199219 L -76.503906 77.972656 C -80.160156 83.101562 -84.179688 85.792969 -88.566406 86.042969 C -92.535156 85.53125 -96.292969 82.453125 -99.835938 76.804688 L -127.59375 13.367188 C -130.550781 7.957031 -133.117188 4.355469 -135.289062 2.5625 C -135.488281 1.9375 -137.1875 1.003906 -140.390625 -0.230469 C -143.121094 -0.648438 -147.851562 2.835938 -154.578125 10.21875 C -158.128906 14.140625 -167.386719 27.558594 -182.351562 50.460938 L -192.378906 62.863281 C -194.007812 64.617188 -196.433594 66.570312 -199.65625 68.730469 C -201.6875 69.632812 -203.648438 70.363281 -205.550781 70.917969 C -205.730469 71.039062 -206.390625 70.984375 -207.53125 70.761719 C -210.925781 70.242188 -213.34375 69.304688 -214.777344 67.949219 C -217.082031 66.566406 -219.710938 63.730469 -222.65625 59.4375 C -225.722656 54.75 -228.375 49.964844 -230.613281 45.078125 C -241.734375 19.351562 -248.890625 4.175781 -252.074219 -0.441406 C -254.941406 -5.117188 -257.816406 -8.609375 -260.699219 -10.921875 C -262.875 -12.542969 -265.074219 -13.398438 -267.292969 -13.488281 C -270.730469 -13.480469 -274.089844 -12.492188 -277.371094 -10.53125 C -283.191406 -6.6875 -287.820312 -2.8125 -291.269531 1.089844 L -305.847656 18.523438 C -311.953125 26.582031 -319.605469 37.386719 -328.808594 50.941406 C -328.925781 51.085938 -329.207031 51.078125 -329.644531 50.921875 C -333.257812 49.097656 -335.621094 47.390625 -336.738281 45.808594 C -321.535156 24.609375 -310.410156 10.175781 -303.363281 2.511719 C -290.320312 -12.761719 -278.191406 -20.496094 -266.972656 -20.695312 C -260.261719 -20.160156 -254.613281 -16.621094 -250.027344 -10.082031 L -241.222656 4.472656 C -227.328125 36.105469 -219.621094 52.503906 -218.101562 53.667969 L -212.867188 60.636719 L -209.667969 63.167969 C -206.082031 63.960938 -205.125 64.285156 -206.800781 64.140625 C -203.523438 62.988281 -201.894531 62.269531 -201.914062 61.988281 L -193.007812 53.1875 L -157.503906 3.414062 C -151.058594 -3.542969 -145.25 -6.980469 -140.074219 -6.898438 C -133.960938 -6.421875 -128.160156 -1.242188 -122.675781 8.644531 L -97.9375 66.921875 L -93.464844 74.839844 C -91.503906 77.847656 -89.578125 79.476562 -87.683594 79.722656 C -88.023438 79.636719 -88.351562 79.671875 -88.660156 79.832031 C -86.089844 78.816406 -84.859375 78.179688 -84.972656 77.925781 L -78.15625 68.976562 C -60.828125 33.894531 -51.351562 15.914062 -49.722656 15.039062 C -43.324219 6.328125 -37.640625 2.058594 -32.671875 2.230469 C -28.28125 3.277344 -25.632812 4.273438 -24.726562 5.210938 C -21.488281 7.496094 -18.375 10.699219 -15.382812 14.824219 L 17.835938 71.4375 C 21.679688 77.902344 26.628906 82.460938 32.6875 85.121094 C 35.476562 86.320312 40.375 82.851562 47.378906 74.71875 C 49.480469 72.757812 57.765625 59.429688 72.238281 34.734375 C 75.433594 29.695312 78.453125 25.648438 81.292969 22.597656 C 85.734375 17.820312 90.101562 15.285156 94.390625 14.992188 C 98.460938 15.929688 100.925781 16.832031 101.78125 17.703125 C 104.796875 19.808594 107.660156 22.78125 110.371094 26.617188 L 140.386719 80.589844 C 144.734375 87.644531 149.351562 92.316406 154.234375 94.609375 C 158.042969 95.867188 163.207031 93.0625 169.726562 86.191406 C 171.113281 86.261719 182.839844 69.074219 204.898438 34.632812 C 211.300781 26.339844 216.855469 22.152344 221.566406 22.082031 C 235.289062 20.796875 248.332031 41.242188 260.691406 83.425781 " fill-opacity="1" fill-rule="nonzero"/></g></g></g></g></g></g></g><g clip-path="url(#df3babeafe)"><g clip-path="url(#eb2494a108)"><g clip-path="url(#d77dc0c94b)"><g transform="matrix(1, 0, 0, 1, 47, 166)"><g clip-path="url(#fdc86659c9)"><g clip-path="url(#ed67a42e3b)"><g clip-path="url(#e4d2196562)"><g clip-path="url(#350cedcde8)"><path fill="#f3f5fc" d="M -8.597656 8.636719 L 9.234375 -7.828125 L 19.152344 2.910156 L 1.320312 19.378906 Z M -8.597656 8.636719 " fill-opacity="1" fill-rule="nonzero"/></g></g></g></g></g></g></g></g><g clip-path="url(#5479766f67)"><g clip-path="url(#f97801915f)"><g clip-path="url(#45e8593743)"><g transform="matrix(1, 0, 0, 1, 324, 101)"><g clip-path="url(#22d50988f8)"><g clip-path="url(#d9d84490f0)"><g clip-path="url(#16489bb319)"><g clip-path="url(#a18472f1b6)"><path fill="#f3f5fc" d="M -11.484375 9.949219 L 20.101562 -9.339844 L 31.71875 9.683594 L 0.136719 28.976562 Z M -11.484375 9.949219 " fill-opacity="1" fill-rule="nonzero"/></g></g></g></g></g></g></g></g><g fill="#090b18" fill-opacity="1"><g transform="translate(103.243571, 281.22484)"><g><path d="M 24.65625 -10.640625 C 24.65625 -12.222656 24.097656 -13.4375 22.984375 -14.28125 C 21.867188 -15.125 19.863281 -16.015625 16.96875 -16.953125 C 14.070312 -17.890625 11.773438 -18.8125 10.078125 -19.71875 C 5.472656 -22.207031 3.171875 -25.5625 3.171875 -29.78125 C 3.171875 -31.96875 3.785156 -33.921875 5.015625 -35.640625 C 6.253906 -37.359375 8.03125 -38.695312 10.34375 -39.65625 C 12.65625 -40.625 15.253906 -41.109375 18.140625 -41.109375 C 21.035156 -41.109375 23.613281 -40.582031 25.875 -39.53125 C 28.144531 -38.488281 29.90625 -37.007812 31.15625 -35.09375 C 32.40625 -33.1875 33.03125 -31.015625 33.03125 -28.578125 L 24.671875 -28.578125 C 24.671875 -30.429688 24.085938 -31.875 22.921875 -32.90625 C 21.753906 -33.9375 20.113281 -34.453125 18 -34.453125 C 15.957031 -34.453125 14.367188 -34.019531 13.234375 -33.15625 C 12.097656 -32.289062 11.53125 -31.15625 11.53125 -29.75 C 11.53125 -28.425781 12.191406 -27.316406 13.515625 -26.421875 C 14.847656 -25.535156 16.804688 -24.703125 19.390625 -23.921875 C 24.140625 -22.492188 27.597656 -20.722656 29.765625 -18.609375 C 31.941406 -16.492188 33.03125 -13.859375 33.03125 -10.703125 C 33.03125 -7.191406 31.703125 -4.4375 29.046875 -2.4375 C 26.390625 -0.4375 22.816406 0.5625 18.328125 0.5625 C 15.210938 0.5625 12.375 -0.0078125 9.8125 -1.15625 C 7.25 -2.300781 5.289062 -3.863281 3.9375 -5.84375 C 2.59375 -7.832031 1.921875 -10.132812 1.921875 -12.75 L 10.3125 -12.75 C 10.3125 -8.28125 12.984375 -6.046875 18.328125 -6.046875 C 20.316406 -6.046875 21.867188 -6.445312 22.984375 -7.25 C 24.097656 -8.0625 24.65625 -9.191406 24.65625 -10.640625 Z M 24.65625 -10.640625 "/></g></g></g><g fill="#090b18" fill-opacity="1"><g transform="translate(144.018809, 281.22484)"><g><path d="M 11.984375 -14.296875 L 11.984375 0 L 3.625 0 L 3.625 -40.5625 L 19.4375 -40.5625 C 22.488281 -40.5625 25.171875 -40.003906 27.484375 -38.890625 C 29.796875 -37.773438 31.570312 -36.191406 32.8125 -34.140625 C 34.050781 -32.085938 34.671875 -29.75 34.671875 -27.125 C 34.671875 -23.15625 33.3125 -20.023438 30.59375 -17.734375 C 27.875 -15.441406 24.109375 -14.296875 19.296875 -14.296875 Z M 11.984375 -21.0625 L 19.4375 -21.0625 C 21.644531 -21.0625 23.328125 -21.578125 24.484375 -22.609375 C 25.648438 -23.648438 26.234375 -25.140625 26.234375 -27.078125 C 26.234375 -29.066406 25.648438 -30.671875 24.484375 -31.890625 C 23.316406 -33.117188 21.703125 -33.75 19.640625 -33.78125 L 11.984375 -33.78125 Z M 11.984375 -21.0625 "/></g></g></g><g fill="#090b18" fill-opacity="1"><g transform="translate(186.521052, 281.22484)"><g><path d="M 11.984375 -6.71875 L 29.71875 -6.71875 L 29.71875 0 L 3.625 0 L 3.625 -40.5625 L 11.984375 -40.5625 Z M 11.984375 -6.71875 "/></g></g></g><g fill="#090b18" fill-opacity="1"><g transform="translate(223.118053, 281.22484)"><g><path d="M 12.5 0 L 4.15625 0 L 4.15625 -40.5625 L 12.5 -40.5625 Z M 12.5 0 "/></g></g></g><g fill="#090b18" fill-opacity="1"><g transform="translate(245.453336, 281.22484)"><g><path d="M 34.15625 -33.78125 L 21.734375 -33.78125 L 21.734375 0 L 13.375 0 L 13.375 -33.78125 L 1.109375 -33.78125 L 1.109375 -40.5625 L 34.15625 -40.5625 Z M 34.15625 -33.78125 "/></g></g></g></svg>